<svg width="180" height="180" viewBox="0 0 180 180" fill="none" xmlns="http://www.w3.org/2000/svg">
<path d="M41.25 131.145V153.375C41.2579 155.958 42.2877 158.434 44.1144 160.261C45.9412 162.087 48.4166 163.117 51 163.125H129C131.583 163.117 134.059 162.087 135.886 160.261C137.712 158.434 138.742 155.958 138.75 153.375V26.625C138.742 24.0416 137.712 21.5662 135.886 19.7394C134.059 17.9127 131.583 16.8829 129 16.875H51C48.4166 16.8829 45.9412 17.9127 44.1144 19.7394C42.2877 21.5662 41.2579 24.0416 41.25 26.625V48.855" stroke="#100D86" stroke-linecap="round" stroke-linejoin="round"/>
<path d="M48.4725 119.801L78.2738 90L48.4725 60.1987M78.2738 119.801H111.488" stroke="#100D86" stroke-linecap="round" stroke-linejoin="round"/>
</svg>
