<svg width="50" height="50" viewBox="0 0 50 50" fill="none" xmlns="http://www.w3.org/2000/svg">
<path d="M27.9883 26.875L40.0391 22.5C40.4865 22.331 40.8721 22.0301 41.145 21.6373C41.4178 21.2444 41.565 20.778 41.5671 20.2997C41.5692 19.8214 41.4262 19.3537 41.1568 18.9584C40.8875 18.5632 40.5045 18.2589 40.0586 18.0859L9.7461 6.71876C9.32364 6.56557 8.86626 6.53601 8.42759 6.63354C7.98893 6.73107 7.58716 6.95164 7.2694 7.2694C6.95164 7.58716 6.73107 7.98893 6.63354 8.42759C6.53601 8.86626 6.56557 9.32364 6.71876 9.7461L18.1055 40.0586C18.2648 40.5095 18.5616 40.899 18.9541 41.1723C19.3465 41.4456 19.8148 41.5889 20.293 41.582C20.7749 41.5829 21.2453 41.4353 21.6402 41.1592C22.0351 40.8831 22.3354 40.4919 22.5 40.0391L26.875 27.9883L40.0781 41.1719C40.1489 41.2456 40.2338 41.3044 40.3277 41.3447C40.4217 41.3849 40.5228 41.4059 40.625 41.4063C40.7274 41.407 40.8288 41.3866 40.923 41.3463C41.0171 41.3059 41.1018 41.2466 41.1719 41.1719C41.2451 41.1009 41.3033 41.0159 41.3431 40.9219C41.3829 40.828 41.4034 40.727 41.4034 40.625C41.4034 40.523 41.3829 40.422 41.3431 40.3281C41.3033 40.2341 41.2451 40.1491 41.1719 40.0781L27.9883 26.875ZM21.0156 39.5117C20.9655 39.6626 20.8682 39.7934 20.7381 39.8848C20.608 39.9763 20.4519 40.0235 20.293 40.0195C20.1314 40.0246 19.9724 39.9781 19.8389 39.8868C19.7055 39.7956 19.6046 39.6642 19.5508 39.5117L8.1836 9.19923C8.13252 9.05666 8.12191 8.90273 8.15293 8.75449C8.18396 8.60626 8.25541 8.4695 8.35939 8.35939C8.51245 8.2285 8.70504 8.15284 8.90626 8.14454C9.00553 8.13831 9.10506 8.15158 9.19923 8.1836L39.5117 19.5508C39.6625 19.6071 39.7922 19.7086 39.8831 19.8415C39.974 19.9743 40.0217 20.132 40.0195 20.293C40.0235 20.4519 39.9763 20.608 39.8848 20.7381C39.7934 20.8682 39.6626 20.9655 39.5117 21.0156L26.9727 25.5859C26.6544 25.7021 26.3654 25.8863 26.1259 26.1259C25.8863 26.3654 25.7021 26.6544 25.5859 26.9727L21.0156 39.5117Z" fill="#100D86"/>
</svg>
