<svg width="40" height="40" viewBox="0 0 40 40" fill="none" xmlns="http://www.w3.org/2000/svg">
<path d="M7.5 30C7.5 31.7187 8.76563 33.125 10.3125 33.125C10.97 33.1288 11.6032 32.8767 12.0781 32.4219C12.2052 32.316 12.3675 32.2621 12.5326 32.2708C12.6977 32.2795 12.8535 32.3502 12.9688 32.4687C13.0782 32.5942 13.1345 32.7573 13.1257 32.9236C13.117 33.0898 13.0439 33.2461 12.9219 33.3594C12.2075 34.0087 11.2779 34.3705 10.3125 34.375C8.07812 34.375 6.25 32.4062 6.25 30C6.25 27.5937 8.07812 25.625 10.3125 25.625C11.2779 25.6295 12.2075 25.9913 12.9219 26.6406C13.0439 26.7539 13.117 26.9102 13.1257 27.0764C13.1345 27.2427 13.0782 27.4058 12.9688 27.5312C12.8535 27.6498 12.6977 27.7205 12.5326 27.7292C12.3675 27.7379 12.2052 27.684 12.0781 27.5781C11.6032 27.1233 10.97 26.8712 10.3125 26.875C8.76563 26.875 7.5 28.2812 7.5 30ZM20.0938 29.3281C18.75 28.9687 18.125 28.7344 18.125 28.125C18.125 27.25 18.7656 26.7187 19.8438 26.7187C20.5418 26.7176 21.2215 26.9424 21.7812 27.3594C21.8449 27.4127 21.9184 27.453 21.9975 27.478C22.0767 27.5029 22.16 27.512 22.2427 27.5048C22.3254 27.4975 22.4059 27.474 22.4795 27.4357C22.5532 27.3973 22.6185 27.3449 22.6719 27.2812C22.7252 27.2176 22.7655 27.1441 22.7905 27.065C22.8154 26.9858 22.8245 26.9025 22.8173 26.8198C22.81 26.7371 22.7865 26.6566 22.7482 26.583C22.7098 26.5093 22.6574 26.444 22.5938 26.3906C21.7976 25.8003 20.8348 25.4776 19.8438 25.4687C18.0625 25.4687 16.875 26.5312 16.875 28.125C16.875 29.7187 18.4844 30.1875 19.7812 30.5312C21.0781 30.875 21.875 31.1562 21.875 31.875C21.875 32.2656 21.875 33.2812 19.8438 33.2812C19.1418 33.277 18.4587 33.053 17.8906 32.6406C17.7638 32.5359 17.6009 32.4854 17.4371 32.5C17.2733 32.5147 17.1219 32.5932 17.0156 32.7187C16.91 32.8481 16.859 33.0136 16.8736 33.1799C16.8882 33.3463 16.9672 33.5004 17.0938 33.6094C17.8899 34.1997 18.8527 34.5224 19.8438 34.5312C21.9219 34.5312 23.125 33.5625 23.125 31.875C23.125 30.1875 21.4531 29.6719 20.0938 29.3281ZM30.0938 29.3281C28.75 28.9687 28.125 28.7344 28.125 28.125C28.125 27.25 28.7656 26.7187 29.8438 26.7187C30.5418 26.7176 31.2215 26.9424 31.7812 27.3594C31.9097 27.4671 32.0757 27.5194 32.2427 27.5048C32.4098 27.4901 32.5641 27.4097 32.6719 27.2812C32.7796 27.1528 32.8319 26.9868 32.8173 26.8198C32.8026 26.6527 32.7222 26.4984 32.5938 26.3906C31.7976 25.8003 30.8348 25.4776 29.8438 25.4687C28.0625 25.4687 26.875 26.5312 26.875 28.125C26.875 29.7187 28.4844 30.1875 29.7813 30.5312C31.0781 30.875 31.875 31.1562 31.875 31.875C31.875 32.2656 31.875 33.2812 29.8438 33.2812C29.1418 33.277 28.4587 33.053 27.8906 32.6406C27.7638 32.5359 27.6009 32.4854 27.4371 32.5C27.2733 32.5147 27.1219 32.5932 27.0156 32.7187C26.91 32.8481 26.859 33.0136 26.8736 33.1799C26.8882 33.3463 26.9672 33.5004 27.0937 33.6094C27.8899 34.1997 28.8527 34.5224 29.8438 34.5312C31.9219 34.5312 33.125 33.5625 33.125 31.875C33.125 30.1875 31.4531 29.6719 30.0938 29.3281ZM33.125 13.7656V20C33.125 20.1658 33.0592 20.3247 32.9419 20.4419C32.8247 20.5591 32.6658 20.625 32.5 20.625C32.3342 20.625 32.1753 20.5591 32.0581 20.4419C31.9408 20.3247 31.875 20.1658 31.875 20V14.375H23.75C23.5842 14.375 23.4253 14.3091 23.3081 14.1919C23.1908 14.0747 23.125 13.9158 23.125 13.75V5.625H8.75C8.58424 5.625 8.42527 5.69085 8.30806 5.80806C8.19085 5.92527 8.125 6.08424 8.125 6.25V20C8.125 20.1658 8.05915 20.3247 7.94194 20.4419C7.82473 20.5591 7.66576 20.625 7.5 20.625C7.33424 20.625 7.17527 20.5591 7.05806 20.4419C6.94085 20.3247 6.875 20.1658 6.875 20V6.25C6.875 5.75272 7.07254 5.2758 7.42417 4.92417C7.77581 4.57254 8.25272 4.375 8.75 4.375H23.75C23.8322 4.37237 23.914 4.3878 23.9896 4.42019C24.0652 4.45259 24.1327 4.50116 24.1875 4.5625L32.9375 13.2969C33.0524 13.4205 33.1189 13.5813 33.125 13.75V13.7656ZM24.375 13.125H30.9844L24.375 6.51562V13.125Z" fill="#100D86"/>
</svg>
