<svg width="26" height="26" viewBox="0 0 26 26" fill="none" xmlns="http://www.w3.org/2000/svg">
<g clip-path="url(#clip0_203_19)">
<path d="M19.9062 0H6.09375C2.72826 0 0 2.72826 0 6.09375V19.9062C0 23.2717 2.72826 26 6.09375 26H19.9062C23.2717 26 26 23.2717 26 19.9062V6.09375C26 2.72826 23.2717 0 19.9062 0Z" fill="#100D86"/>
<path d="M5.45929 10.4255L5.74996 13.6696H13.0097V10.4255H5.45929ZM13.0096 3.85938H4.875L5.16994 7.10348H13.0096V3.85938ZM13.0096 22.226V18.8508L12.9954 18.8546L9.38244 17.8791L9.15149 15.2917H5.89489L6.34938 20.3854L12.9947 22.2302L13.0096 22.226Z" fill="#EBEBEB"/>
<path d="M16.9932 13.6696L16.6166 17.8769L12.9985 18.8536V22.2286L19.6491 20.3854L19.6978 19.8373L20.4602 11.2967L20.5393 10.4255L21.125 3.85938H12.9985V7.10348H17.5697L17.2746 10.4255H12.9985V13.6696H16.9932Z" fill="white"/>
</g>
<defs>
<clipPath id="clip0_203_19">
<rect width="26" height="26" fill="white"/>
</clipPath>
</defs>
</svg>
