<svg width="32" height="32" viewBox="0 0 32 32" fill="none" xmlns="http://www.w3.org/2000/svg">
<path d="M7.33337 23.3147V27.2667C7.33478 27.7259 7.51785 28.166 7.84261 28.4908C8.16737 28.8155 8.60743 28.9986 9.06671 29H22.9334C23.3927 28.9986 23.8327 28.8155 24.1575 28.4908C24.4822 28.166 24.6653 27.7259 24.6667 27.2667V4.73333C24.6653 4.27406 24.4822 3.83399 24.1575 3.50924C23.8327 3.18448 23.3927 3.00141 22.9334 3H9.06671C8.60743 3.00141 8.16737 3.18448 7.84261 3.50924C7.51785 3.83399 7.33478 4.27406 7.33337 4.73333V8.68533" stroke="#100D86" stroke-linecap="round" stroke-linejoin="round"/>
<path d="M8.61731 21.298L13.9153 16L8.61731 10.702M13.9153 21.298H19.82" stroke="#100D86" stroke-linecap="round" stroke-linejoin="round"/>
</svg>
