<svg width="30" height="30" viewBox="0 0 30 30" fill="none" xmlns="http://www.w3.org/2000/svg">
<path d="M21.6164 11.25C22.4569 10.8168 23.1276 10.1138 23.5207 9.25373C23.9138 8.3937 24.0065 7.42654 23.784 6.50748C23.5616 5.58841 23.0368 4.77073 22.2939 4.18567C21.551 3.60062 20.6331 3.2821 19.6875 3.28125H11.25C10.3044 3.2821 9.38649 3.60062 8.6436 4.18567C7.90072 4.77073 7.37593 5.58841 7.15346 6.50748C6.93099 7.42654 7.02375 8.3937 7.41684 9.25373C7.80992 10.1138 8.48055 10.8168 9.32109 11.25C8.61703 11.6128 8.02931 12.1664 7.62518 12.8476C7.22105 13.5288 7.01684 14.31 7.03591 15.1018C7.05499 15.8936 7.29658 16.664 7.73303 17.325C8.16949 17.9859 8.78319 18.5106 9.50391 18.8391C8.77315 19.2308 8.15939 19.8094 7.72523 20.5158C7.29107 21.2222 7.05205 22.0311 7.03255 22.86C7.01305 23.689 7.21376 24.5082 7.61422 25.2343C8.01468 25.9603 8.60055 26.5671 9.31207 26.9928C10.0236 27.4185 10.8353 27.6479 11.6644 27.6575C12.4935 27.6671 13.3103 27.4566 14.0315 27.0475C14.7527 26.6384 15.3525 26.0454 15.7697 25.3288C16.1869 24.6123 16.4065 23.7979 16.4062 22.9688V17.6473C16.8 18.1378 17.2984 18.534 17.8651 18.807C18.4317 19.0801 19.0522 19.2229 19.6812 19.2251C20.3102 19.2274 20.9317 19.0889 21.5003 18.8199C22.0689 18.551 22.5701 18.1582 22.9673 17.6705C23.3645 17.1828 23.6477 16.6125 23.796 16.0012C23.9443 15.39 23.9541 14.7533 23.8246 14.1378C23.695 13.5223 23.4295 12.9435 23.0475 12.4438C22.6654 11.9442 22.1765 11.5363 21.6164 11.25ZM22.9688 7.5C22.9688 8.37024 22.623 9.20484 22.0077 9.82019C21.3923 10.4355 20.5577 10.7812 19.6875 10.7812H16.4062V4.21875H19.6875C20.5577 4.21875 21.3923 4.56445 22.0077 5.17981C22.623 5.79516 22.9688 6.62976 22.9688 7.5ZM16.4062 11.7188H17.0402C16.8072 11.9072 16.5947 12.1197 16.4062 12.3527V11.7188ZM7.96875 7.5C7.96875 6.62976 8.31445 5.79516 8.92981 5.17981C9.54516 4.56445 10.3798 4.21875 11.25 4.21875H15.4688V10.7812H11.25C10.3798 10.7812 9.54516 10.4355 8.92981 9.82019C8.31445 9.20484 7.96875 8.37024 7.96875 7.5ZM15.4688 22.9688C15.4688 23.7104 15.2488 24.4355 14.8368 25.0521C14.4247 25.6688 13.839 26.1495 13.1538 26.4333C12.4686 26.7171 11.7146 26.7914 10.9872 26.6467C10.2597 26.502 9.59155 26.1448 9.0671 25.6204C8.54265 25.096 8.1855 24.4278 8.04081 23.7003C7.89611 22.9729 7.97037 22.2189 8.2542 21.5337C8.53803 20.8485 9.01868 20.2628 9.63536 19.8507C10.252 19.4387 10.9771 19.2188 11.7188 19.2188H15.4688V22.9688ZM15.4688 18.2812H11.25C10.3798 18.2812 9.54516 17.9355 8.92981 17.3202C8.31445 16.7048 7.96875 15.8702 7.96875 15C7.96875 14.1298 8.31445 13.2952 8.92981 12.6798C9.54516 12.0645 10.3798 11.7188 11.25 11.7188H15.4688V18.2812ZM19.6875 18.2812C19.0385 18.2812 18.4041 18.0888 17.8645 17.7283C17.3249 17.3677 16.9044 16.8552 16.656 16.2557C16.4077 15.6561 16.3427 14.9964 16.4693 14.3599C16.5959 13.7234 16.9084 13.1387 17.3673 12.6798C17.8262 12.2209 18.4109 11.9084 19.0474 11.7818C19.6839 11.6552 20.3436 11.7202 20.9432 11.9685C21.5427 12.2169 22.0552 12.6374 22.4158 13.177C22.7763 13.7166 22.9688 14.351 22.9688 15C22.9688 15.8702 22.623 16.7048 22.0077 17.3202C21.3923 17.9355 20.5577 18.2812 19.6875 18.2812Z" fill="#100D86"/>
</svg>
