<svg width="40" height="40" viewBox="0 0 40 40" fill="none" xmlns="http://www.w3.org/2000/svg">
<path d="M27.9531 14.6875C29.1493 14.0904 30.109 13.1071 30.6768 11.8967C31.2447 10.6864 31.3874 9.31978 31.0819 8.0182C30.7764 6.71663 30.0405 5.55625 28.9935 4.72492C27.9464 3.8936 26.6494 3.43998 25.3125 3.4375H14.6875C13.3505 3.43998 12.0535 3.8936 11.0065 4.72492C9.95944 5.55625 9.22359 6.71663 8.91808 8.0182C8.61257 9.31978 8.75528 10.6864 9.32311 11.8967C9.89093 13.1071 10.8506 14.0904 12.0469 14.6875C11.0548 15.1761 10.2194 15.9327 9.63526 16.8716C9.05108 17.8105 8.74146 18.8942 8.74146 20C8.74146 21.1058 9.05108 22.1895 9.63526 23.1284C10.2194 24.0673 11.0548 24.8239 12.0469 25.3125C11.099 25.7832 10.2942 26.4986 9.71566 27.3847C9.13715 28.2709 8.806 29.2956 8.75648 30.3527C8.70697 31.4098 8.94089 32.4609 9.43402 33.3973C9.92716 34.3336 10.6616 35.1212 11.5613 35.6783C12.461 36.2355 13.4933 36.5421 14.5513 36.5664C15.6093 36.5907 16.6545 36.3318 17.5788 35.8164C18.5032 35.3011 19.2729 34.5481 19.8085 33.6353C20.3441 32.7226 20.626 31.6833 20.625 30.625V23.6406C21.1711 24.3477 21.8697 24.9224 22.6688 25.3219C23.4679 25.7215 24.3469 25.9355 25.2402 25.9481C26.1335 25.9608 27.0181 25.7716 27.8282 25.3948C28.6383 25.018 29.3528 24.4633 29.9187 23.7719C30.4846 23.0806 30.8871 22.2705 31.0964 21.4019C31.3057 20.5334 31.3162 19.6288 31.1273 18.7556C30.9383 17.8824 30.5548 17.0631 30.0052 16.3587C29.4556 15.6543 28.7542 15.0831 27.9531 14.6875ZM30 9.375C30 10.6182 29.5061 11.8105 28.627 12.6896C27.748 13.5686 26.5557 14.0625 25.3125 14.0625H20.625V4.6875H25.3125C26.5544 4.69162 27.7443 5.1868 28.6225 6.06499C29.5007 6.94317 29.9959 8.13307 30 9.375ZM21.6719 15.3125C21.285 15.6213 20.9338 15.9725 20.625 16.3594V15.3125H21.6719ZM9.99998 9.375C10.0041 8.13307 10.4993 6.94317 11.3775 6.06499C12.2557 5.1868 13.4455 4.69162 14.6875 4.6875H19.375V14.0625H14.6875C13.4443 14.0625 12.252 13.5686 11.3729 12.6896C10.4938 11.8105 9.99998 10.6182 9.99998 9.375ZM14.6875 35.3125C13.4443 35.3125 12.252 34.8186 11.3729 33.9396C10.4938 33.0605 9.99998 31.8682 9.99998 30.625C9.99998 29.3818 10.4938 28.1895 11.3729 27.3104C12.252 26.4314 13.4443 25.9375 14.6875 25.9375H19.375V30.625C19.3709 31.8669 18.8757 33.0568 17.9975 33.935C17.1193 34.8132 15.9294 35.3084 14.6875 35.3125ZM19.375 24.6875H14.6875C13.4443 24.6875 12.252 24.1936 11.3729 23.3146C10.4938 22.4355 9.99998 21.2432 9.99998 20C9.99998 18.7568 10.4938 17.5645 11.3729 16.6854C12.252 15.8064 13.4443 15.3125 14.6875 15.3125H19.375V24.6875ZM25.3125 24.6875C24.0693 24.6875 22.877 24.1936 21.9979 23.3146C21.1188 22.4355 20.625 21.2432 20.625 20C20.625 18.7568 21.1188 17.5645 21.9979 16.6854C22.877 15.8064 24.0693 15.3125 25.3125 15.3125C26.5557 15.3125 27.748 15.8064 28.627 16.6854C29.5061 17.5645 30 18.7568 30 20C30 21.2432 29.5061 22.4355 28.627 23.3146C27.748 24.1936 26.5557 24.6875 25.3125 24.6875Z" fill="#100D86"/>
</svg>
