<svg width="42" height="12" viewBox="0 0 42 12" fill="none" xmlns="http://www.w3.org/2000/svg">
<path d="M6.315 11.09C5.515 11.09 4.775 10.96 4.095 10.7C3.425 10.43 2.84 10.055 2.34 9.575C1.85 9.095 1.465 8.53 1.185 7.88C0.915 7.23 0.78 6.52 0.78 5.75C0.78 4.98 0.915 4.27 1.185 3.62C1.465 2.97 1.855 2.405 2.355 1.925C2.855 1.445 3.44 1.075 4.11 0.815C4.79 0.545 5.53 0.41 6.33 0.41C7.13 0.41 7.86 0.534999 8.52 0.784999C9.19 1.035 9.76 1.415 10.23 1.925L9.54 2.63C9.1 2.19 8.615 1.875 8.085 1.685C7.555 1.495 6.985 1.4 6.375 1.4C5.725 1.4 5.125 1.51 4.575 1.73C4.035 1.94 3.56 2.245 3.15 2.645C2.75 3.035 2.435 3.495 2.205 4.025C1.985 4.545 1.875 5.12 1.875 5.75C1.875 6.37 1.985 6.945 2.205 7.475C2.435 8.005 2.75 8.47 3.15 8.87C3.56 9.26 4.035 9.565 4.575 9.785C5.125 9.995 5.72 10.1 6.36 10.1C6.96 10.1 7.525 10.01 8.055 9.83C8.595 9.65 9.09 9.345 9.54 8.915L10.17 9.755C9.67 10.195 9.085 10.53 8.415 10.76C7.745 10.98 7.045 11.09 6.315 11.09ZM9.105 9.62V5.75H10.17V9.755L9.105 9.62ZM16.2066 11.09C15.4266 11.09 14.6766 10.965 13.9566 10.715C13.2466 10.455 12.6966 10.125 12.3066 9.725L12.7416 8.87C13.1116 9.23 13.6066 9.535 14.2266 9.785C14.8566 10.025 15.5166 10.145 16.2066 10.145C16.8666 10.145 17.4016 10.065 17.8116 9.905C18.2316 9.735 18.5366 9.51 18.7266 9.23C18.9266 8.95 19.0266 8.64 19.0266 8.3C19.0266 7.89 18.9066 7.56 18.6666 7.31C18.4366 7.06 18.1316 6.865 17.7516 6.725C17.3716 6.575 16.9516 6.445 16.4916 6.335C16.0316 6.225 15.5716 6.11 15.1116 5.99C14.6516 5.86 14.2266 5.69 13.8366 5.48C13.4566 5.27 13.1466 4.995 12.9066 4.655C12.6766 4.305 12.5616 3.85 12.5616 3.29C12.5616 2.77 12.6966 2.295 12.9666 1.865C13.2466 1.425 13.6716 1.075 14.2416 0.815C14.8116 0.545 15.5416 0.41 16.4316 0.41C17.0216 0.41 17.6066 0.495 18.1866 0.665C18.7666 0.825 19.2666 1.05 19.6866 1.34L19.3116 2.225C18.8616 1.925 18.3816 1.705 17.8716 1.565C17.3716 1.425 16.8866 1.355 16.4166 1.355C15.7866 1.355 15.2666 1.44 14.8566 1.61C14.4466 1.78 14.1416 2.01 13.9416 2.3C13.7516 2.58 13.6566 2.9 13.6566 3.26C13.6566 3.67 13.7716 4 14.0016 4.25C14.2416 4.5 14.5516 4.695 14.9316 4.835C15.3216 4.975 15.7466 5.1 16.2066 5.21C16.6666 5.32 17.1216 5.44 17.5716 5.57C18.0316 5.7 18.4516 5.87 18.8316 6.08C19.2216 6.28 19.5316 6.55 19.7616 6.89C20.0016 7.23 20.1216 7.675 20.1216 8.225C20.1216 8.735 19.9816 9.21 19.7016 9.65C19.4216 10.08 18.9916 10.43 18.4116 10.7C17.8416 10.96 17.1066 11.09 16.2066 11.09ZM20.8601 11L25.6601 0.499999H26.7551L31.5551 11H30.3851L25.9751 1.145H26.4251L22.0151 11H20.8601ZM22.7501 8.195L23.0801 7.295H29.1851L29.5151 8.195H22.7501ZM33.292 11V0.499999H37.222C38.112 0.499999 38.877 0.645 39.517 0.935C40.157 1.215 40.647 1.625 40.987 2.165C41.337 2.695 41.512 3.34 41.512 4.1C41.512 4.84 41.337 5.48 40.987 6.02C40.647 6.55 40.157 6.96 39.517 7.25C38.877 7.54 38.112 7.685 37.222 7.685H33.907L34.402 7.16V11H33.292ZM34.402 7.25L33.907 6.71H37.192C38.242 6.71 39.037 6.485 39.577 6.035C40.127 5.575 40.402 4.93 40.402 4.1C40.402 3.26 40.127 2.61 39.577 2.15C39.037 1.69 38.242 1.46 37.192 1.46H33.907L34.402 0.935V7.25Z" fill="#100D86"/>
</svg>
