<svg width="40" height="40" viewBox="0 0 40 40" fill="none" xmlns="http://www.w3.org/2000/svg">
<path d="M19.375 27.5C19.375 27.6658 19.3092 27.8247 19.1919 27.9419C19.0747 28.0592 18.9158 28.125 18.75 28.125H16.875V33.75C16.875 33.9158 16.8092 34.0747 16.6919 34.1919C16.5747 34.3092 16.4158 34.375 16.25 34.375C16.0842 34.375 15.9253 34.3092 15.8081 34.1919C15.6908 34.0747 15.625 33.9158 15.625 33.75V28.125H13.75C13.5842 28.125 13.4253 28.0592 13.3081 27.9419C13.1908 27.8247 13.125 27.6658 13.125 27.5C13.125 27.3342 13.1908 27.1753 13.3081 27.0581C13.4253 26.9408 13.5842 26.875 13.75 26.875H18.75C18.9158 26.875 19.0747 26.9408 19.1919 27.0581C19.3092 27.1753 19.375 27.3342 19.375 27.5ZM10 26.875C9.83424 26.875 9.67527 26.9408 9.55806 27.0581C9.44085 27.1753 9.375 27.3342 9.375 27.5V30H6.25V27.5C6.25 27.3342 6.18415 27.1753 6.06694 27.0581C5.94973 26.9408 5.79076 26.875 5.625 26.875C5.45924 26.875 5.30027 26.9408 5.18306 27.0581C5.06585 27.1753 5 27.3342 5 27.5V33.75C5 33.9158 5.06585 34.0747 5.18306 34.1919C5.30027 34.3092 5.45924 34.375 5.625 34.375C5.79076 34.375 5.94973 34.3092 6.06694 34.1919C6.18415 34.0747 6.25 33.9158 6.25 33.75V31.25H9.375V33.75C9.375 33.9158 9.44085 34.0747 9.55806 34.1919C9.67527 34.3092 9.83424 34.375 10 34.375C10.1658 34.375 10.3247 34.3092 10.4419 34.1919C10.5592 34.0747 10.625 33.9158 10.625 33.75V27.5C10.625 27.3342 10.5592 27.1753 10.4419 27.0581C10.3247 26.9408 10.1658 26.875 10 26.875ZM36.875 33.125H33.75V27.5C33.75 27.3342 33.6842 27.1753 33.5669 27.0581C33.4497 26.9408 33.2908 26.875 33.125 26.875C32.9592 26.875 32.8003 26.9408 32.6831 27.0581C32.5658 27.1753 32.5 27.3342 32.5 27.5V33.75C32.5 33.9158 32.5658 34.0747 32.6831 34.1919C32.8003 34.3092 32.9592 34.375 33.125 34.375H36.875C37.0408 34.375 37.1997 34.3092 37.3169 34.1919C37.4342 34.0747 37.5 33.9158 37.5 33.75C37.5 33.5842 37.4342 33.4253 37.3169 33.3081C37.1997 33.1908 37.0408 33.125 36.875 33.125ZM28.9375 26.9062C28.8103 26.8699 28.6752 26.8729 28.5497 26.9147C28.4242 26.9565 28.3143 27.0353 28.2344 27.1406L25.625 30.7969L23.0156 27.1406C22.9357 27.0353 22.8258 26.9565 22.7003 26.9147C22.5748 26.8729 22.4397 26.8699 22.3125 26.9062C22.186 26.946 22.0755 27.025 21.9968 27.1317C21.9182 27.2384 21.8755 27.3674 21.875 27.5V33.75C21.875 33.9158 21.9408 34.0747 22.0581 34.1919C22.1753 34.3092 22.3342 34.375 22.5 34.375C22.6658 34.375 22.8247 34.3092 22.9419 34.1919C23.0592 34.0747 23.125 33.9158 23.125 33.75V29.4531L25.1094 32.2344C25.1689 32.3151 25.2466 32.3808 25.3362 32.426C25.4257 32.4713 25.5247 32.4948 25.625 32.4948C25.7253 32.4948 25.8243 32.4713 25.9138 32.426C26.0034 32.3808 26.0811 32.3151 26.1406 32.2344L28.125 29.4531V33.75C28.125 33.9158 28.1908 34.0747 28.3081 34.1919C28.4253 34.3092 28.5842 34.375 28.75 34.375C28.9158 34.375 29.0747 34.3092 29.1919 34.1919C29.3092 34.0747 29.375 33.9158 29.375 33.75V27.5C29.3745 27.3674 29.3318 27.2384 29.2532 27.1317C29.1745 27.025 29.064 26.946 28.9375 26.9062ZM32.5 21.875C32.3342 21.875 32.1753 21.8091 32.0581 21.6919C31.9408 21.5747 31.875 21.4158 31.875 21.25V14.375H23.75C23.5842 14.375 23.4253 14.3091 23.3081 14.1919C23.1908 14.0747 23.125 13.9158 23.125 13.75V5.625H8.75C8.58424 5.625 8.42527 5.69085 8.30806 5.80806C8.19085 5.92527 8.125 6.08424 8.125 6.25V21.25C8.125 21.4158 8.05915 21.5747 7.94194 21.6919C7.82473 21.8091 7.66576 21.875 7.5 21.875C7.33424 21.875 7.17527 21.8091 7.05806 21.6919C6.94085 21.5747 6.875 21.4158 6.875 21.25V6.25C6.875 5.75272 7.07254 5.2758 7.42417 4.92417C7.77581 4.57254 8.25272 4.375 8.75 4.375H23.75C23.8322 4.37237 23.914 4.3878 23.9896 4.42019C24.0652 4.45259 24.1327 4.50116 24.1875 4.5625L32.9375 13.2969C33.0524 13.4205 33.1189 13.5813 33.125 13.75V21.25C33.125 21.4158 33.0592 21.5747 32.9419 21.6919C32.8247 21.8091 32.6658 21.875 32.5 21.875ZM24.375 13.125H30.9844L24.375 6.51562V13.125Z" fill="#100D86"/>
</svg>
