<svg width="72" height="72" viewBox="0 0 72 72" fill="none" xmlns="http://www.w3.org/2000/svg">
<g clip-path="url(#clip0_190_63)">
<path d="M28.8184 42.0767L42.0767 28.8184C42.2232 28.6719 42.4219 28.5896 42.6291 28.5896C42.8363 28.5896 43.035 28.6719 43.1815 28.8184C43.328 28.9649 43.4104 29.1636 43.4104 29.3708C43.4104 29.578 43.328 29.7768 43.1815 29.9233L29.9233 43.1815C29.7768 43.328 29.578 43.4103 29.3708 43.4103C29.1636 43.4103 28.9649 43.328 28.8184 43.1815C28.6719 43.035 28.5896 42.8363 28.5896 42.6291C28.5896 42.4219 28.6719 42.2232 28.8184 42.0767ZM38.7621 45.3912L33.2378 50.9155C31.6262 52.5271 29.4403 53.4326 27.1611 53.4326C24.8819 53.4326 22.6961 52.5271 21.0844 50.9155C19.4728 49.3039 18.5674 47.118 18.5674 44.8388C18.5674 42.5596 19.4728 40.3737 21.0844 38.7621L26.6087 33.2378C26.7552 33.0913 26.8375 32.8926 26.8375 32.6854C26.8375 32.4782 26.7552 32.2795 26.6087 32.133C26.4622 31.9865 26.2635 31.9042 26.0563 31.9042C25.8491 31.9042 25.6504 31.9865 25.5039 32.133L19.9796 37.6573C18.0749 39.5619 17.0049 42.1452 17.0049 44.8388C17.0049 47.5324 18.0749 50.1157 19.9796 52.0204C21.8843 53.925 24.4675 54.9951 27.1611 54.9951C29.8547 54.9951 32.438 53.925 34.3427 52.0204L39.867 46.4961C40.0135 46.3496 40.0958 46.1509 40.0958 45.9437C40.0958 45.7365 40.0135 45.5377 39.867 45.3912C39.7205 45.2447 39.5217 45.1624 39.3145 45.1624C39.1073 45.1624 38.9086 45.2447 38.7621 45.3912ZM37.6573 19.9796L32.133 25.5039C31.9865 25.6504 31.9042 25.8491 31.9042 26.0563C31.9042 26.2635 31.9865 26.4622 32.133 26.6087C32.2795 26.7552 32.4782 26.8375 32.6854 26.8375C32.8926 26.8375 33.0913 26.7552 33.2378 26.6087L38.7621 21.0844C40.3738 19.4728 42.5596 18.5674 44.8388 18.5674C47.118 18.5674 49.3039 19.4728 50.9155 21.0844C52.5271 22.6961 53.4326 24.8819 53.4326 27.1611C53.4326 29.4403 52.5272 31.6262 50.9155 33.2378L45.3912 38.7621C45.2447 38.9086 45.1624 39.1073 45.1624 39.3145C45.1624 39.5217 45.2447 39.7204 45.3912 39.867C45.5378 40.0135 45.7365 40.0958 45.9437 40.0958C46.1509 40.0958 46.3496 40.0135 46.4961 39.867L52.0204 34.3427C53.925 32.438 54.9951 29.8547 54.9951 27.1611C54.9951 24.4675 53.925 21.8843 52.0204 19.9796C50.1157 18.0749 47.5324 17.0049 44.8388 17.0049C42.1452 17.0049 39.5619 18.0749 37.6573 19.9796Z" fill="#FF5151"/>
</g>
<defs>
<clipPath id="clip0_190_63">
<rect width="50" height="50" fill="white" transform="translate(0.644653 36) rotate(-45)"/>
</clipPath>
</defs>
</svg>
