<svg width="30" height="30" viewBox="0 0 30 30" fill="none" xmlns="http://www.w3.org/2000/svg">
<path d="M13.125 8.4375V17.8125C13.125 19.0557 12.6311 20.248 11.7521 21.1271C10.873 22.0061 9.6807 22.5 8.4375 22.5C7.1943 22.5 6.00201 22.0061 5.12294 21.1271C4.24386 20.248 3.75 19.0557 3.75 17.8125V16.875C3.75 16.6264 3.84877 16.3879 4.02459 16.2121C4.2004 16.0363 4.43886 15.9375 4.6875 15.9375C4.93614 15.9375 5.1746 16.0363 5.35041 16.2121C5.52623 16.3879 5.625 16.6264 5.625 16.875V17.8125C5.625 18.5584 5.92132 19.2738 6.44876 19.8012C6.97621 20.3287 7.69158 20.625 8.4375 20.625C9.18342 20.625 9.89879 20.3287 10.4262 19.8012C10.9537 19.2738 11.25 18.5584 11.25 17.8125V8.4375C11.25 8.18886 11.3488 7.9504 11.5246 7.77459C11.7004 7.59877 11.9389 7.5 12.1875 7.5C12.4361 7.5 12.6746 7.59877 12.8504 7.77459C13.0262 7.9504 13.125 8.18886 13.125 8.4375ZM20.0175 14.1244C18.0619 13.3912 16.875 12.8625 16.875 11.7188C16.875 9.99 18.39 9.375 19.6875 9.375C20.985 9.375 22.5 9.98813 22.5 11.7188C22.5 11.9674 22.5988 12.2058 22.7746 12.3817C22.9504 12.5575 23.1889 12.6562 23.4375 12.6562C23.6861 12.6562 23.9246 12.5575 24.1004 12.3817C24.2762 12.2058 24.375 11.9674 24.375 11.7188C24.3673 10.8251 24.0797 9.95635 23.5527 9.23461C23.0257 8.51287 22.2857 7.97444 21.4369 7.695C20.2965 7.34741 19.0785 7.34741 17.9381 7.695C17.0893 7.97444 16.3493 8.51287 15.8223 9.23461C15.2953 9.95635 15.0077 10.8251 15 11.7188C15 14.2444 17.4169 15.15 19.3575 15.8775C21.2981 16.605 22.5 17.1413 22.5 18.2812C22.5 20.0119 20.985 20.625 19.6875 20.625C18.39 20.625 16.875 20.0138 16.875 18.2812C16.875 18.0326 16.7762 17.7942 16.6004 17.6183C16.4246 17.4425 16.1861 17.3438 15.9375 17.3438C15.6889 17.3438 15.4504 17.4425 15.2746 17.6183C15.0988 17.7942 15 18.0326 15 18.2812C15.005 18.8744 15.1334 19.46 15.3771 20.0008C15.6207 20.5416 15.9741 21.0258 16.415 21.4225C16.8559 21.8193 17.3745 22.12 17.9379 22.3055C18.5013 22.491 19.0971 22.5573 19.6875 22.5C20.2779 22.5573 20.8737 22.491 21.4371 22.3055C22.0005 22.12 22.5191 21.8193 22.96 21.4225C23.4009 21.0258 23.7543 20.5416 23.9979 20.0008C24.2416 19.46 24.37 18.8744 24.375 18.2812C24.375 15.75 21.9581 14.8519 20.0175 14.1244Z" fill="#100D86"/>
</svg>
