<svg width="40" height="40" viewBox="0 0 40 40" fill="none" xmlns="http://www.w3.org/2000/svg">
<path d="M11.875 26.25V31.25C11.875 32.0788 11.5458 32.8737 10.9597 33.4597C10.3737 34.0458 9.5788 34.375 8.75 34.375C7.9212 34.375 7.12634 34.0458 6.54029 33.4597C5.95424 32.8737 5.625 32.0788 5.625 31.25C5.625 31.0842 5.69085 30.9253 5.80806 30.8081C5.92527 30.6908 6.08424 30.625 6.25 30.625C6.41576 30.625 6.57473 30.6908 6.69194 30.8081C6.80915 30.9253 6.875 31.0842 6.875 31.25C6.875 31.7473 7.07254 32.2242 7.42417 32.5758C7.77581 32.9275 8.25272 33.125 8.75 33.125C9.24728 33.125 9.72419 32.9275 10.0758 32.5758C10.4275 32.2242 10.625 31.7473 10.625 31.25V26.25C10.625 26.0842 10.6908 25.9253 10.8081 25.8081C10.9253 25.6908 11.0842 25.625 11.25 25.625C11.4158 25.625 11.5747 25.6908 11.6919 25.8081C11.8092 25.9253 11.875 26.0842 11.875 26.25ZM18.8438 29.3281C17.5 28.9688 16.875 28.7344 16.875 28.125C16.875 27.25 17.5156 26.7188 18.5938 26.7188C19.2918 26.7176 19.9715 26.9424 20.5312 27.3594C20.6597 27.4671 20.8257 27.5194 20.9927 27.5048C21.1598 27.4901 21.3141 27.4097 21.4219 27.2813C21.5296 27.1528 21.5819 26.9868 21.5673 26.8198C21.5526 26.6527 21.4722 26.4984 21.3438 26.3906C20.5476 25.8003 19.5848 25.4776 18.5938 25.4688C16.8125 25.4688 15.625 26.5313 15.625 28.125C15.625 29.7188 17.2344 30.1875 18.5313 30.5313C19.8281 30.875 20.625 31.1563 20.625 31.875C20.625 32.2656 20.625 33.2813 18.5938 33.2813C17.8918 33.277 17.2087 33.053 16.6406 32.6406C16.5138 32.5359 16.3509 32.4854 16.1871 32.5C16.0233 32.5147 15.8719 32.5932 15.7656 32.7188C15.66 32.8481 15.609 33.0136 15.6236 33.1799C15.6382 33.3463 15.7172 33.5004 15.8438 33.6094C16.6399 34.1997 17.6027 34.5224 18.5938 34.5313C20.6719 34.5313 21.875 33.5625 21.875 31.875C21.875 30.1875 20.2031 29.6719 18.8438 29.3281ZM33.125 13.7656V33.75C33.125 34.2473 32.9275 34.7242 32.5758 35.0758C32.2242 35.4275 31.7473 35.625 31.25 35.625H27.5C27.3342 35.625 27.1753 35.5592 27.0581 35.4419C26.9408 35.3247 26.875 35.1658 26.875 35C26.875 34.8342 26.9408 34.6753 27.0581 34.5581C27.1753 34.4408 27.3342 34.375 27.5 34.375H31.25C31.4158 34.375 31.5747 34.3092 31.6919 34.1919C31.8092 34.0747 31.875 33.9158 31.875 33.75V14.375H23.75C23.5842 14.375 23.4253 14.3092 23.3081 14.1919C23.1908 14.0747 23.125 13.9158 23.125 13.75V5.625H8.75C8.58424 5.625 8.42527 5.69085 8.30806 5.80806C8.19085 5.92527 8.125 6.08424 8.125 6.25V22.5C8.125 22.6658 8.05915 22.8247 7.94194 22.9419C7.82473 23.0592 7.66576 23.125 7.5 23.125C7.33424 23.125 7.17527 23.0592 7.05806 22.9419C6.94085 22.8247 6.875 22.6658 6.875 22.5V6.25C6.875 5.75272 7.07254 5.2758 7.42417 4.92417C7.77581 4.57254 8.25272 4.375 8.75 4.375H23.75C23.8322 4.37237 23.914 4.3878 23.9896 4.42019C24.0651 4.45259 24.1327 4.50116 24.1875 4.5625L32.9375 13.2969C33.0524 13.4205 33.1189 13.5814 33.125 13.75V13.7656ZM24.375 13.125H30.9844L24.375 6.51562V13.125Z" fill="#100D86"/>
</svg>
