<svg width="51" height="50" viewBox="0 0 51 50" fill="none" xmlns="http://www.w3.org/2000/svg">
<path d="M10.9167 10.4167H38C39.6576 10.4167 41.2473 11.0751 42.4194 12.2472C43.5915 13.4193 44.25 15.0091 44.25 16.6667V35.4167C44.25 37.0743 43.5915 38.664 42.4194 39.8361C41.2473 41.0082 39.6576 41.6667 38 41.6667H10.9167C9.25908 41.6667 7.66937 41.0082 6.49727 39.8361C5.32517 38.664 4.66669 37.0743 4.66669 35.4167V16.6667C4.66669 15.0091 5.32517 13.4193 6.49727 12.2472C7.66937 11.0751 9.25908 10.4167 10.9167 10.4167ZM10.9167 12.5C9.87502 12.5 8.95835 12.8542 8.25002 13.4792L24.4584 23.9583L40.6667 13.4792C39.9584 12.8542 39.0417 12.5 38 12.5H10.9167ZM24.4584 26.4792L7.02085 15.1667C6.85419 15.625 6.75002 16.1458 6.75002 16.6667V35.4167C6.75002 36.5217 7.18901 37.5815 7.97041 38.3629C8.75181 39.1443 9.81162 39.5833 10.9167 39.5833H38C39.1051 39.5833 40.1649 39.1443 40.9463 38.3629C41.7277 37.5815 42.1667 36.5217 42.1667 35.4167V16.6667C42.1667 16.1458 42.0625 15.625 41.8959 15.1667L24.4584 26.4792Z" fill="#FF5151"/>
</svg>
