<svg width="30" height="30" viewBox="0 0 30 30" fill="none" xmlns="http://www.w3.org/2000/svg">
<path d="M23.885 15.47C23.7383 15.3025 23.5837 15.1346 23.4212 14.9663C23.5346 14.8463 23.6446 14.7267 23.7512 14.6075C25.7575 12.3525 26.605 10.09 25.82 8.73125C25.0675 7.4275 22.8288 7.03875 20.025 7.58375C19.7492 7.63792 19.4746 7.69875 19.2012 7.76625C19.1487 7.58625 19.0933 7.40708 19.035 7.22875C18.0837 4.3625 16.5475 2.49875 14.9775 2.5C13.4725 2.5 12.0175 4.24625 11.0887 6.9475C10.9971 7.21417 10.9125 7.4825 10.835 7.7525C10.6525 7.7075 10.4692 7.66583 10.285 7.6275C7.3275 7.02125 4.94625 7.42125 4.1625 8.7825C3.41125 10.0863 4.19625 12.22 6.0725 14.3725C6.25917 14.585 6.45083 14.7933 6.6475 14.9975C6.415 15.235 6.19625 15.4738 5.99125 15.7113C4.16 17.8338 3.42 19.9313 4.17 21.23C4.945 22.5725 7.2925 23.0113 10.1512 22.4488C10.3829 22.4029 10.6133 22.3513 10.8425 22.2938C10.9258 22.5863 11.0179 22.8767 11.1188 23.165C12.0438 25.8112 13.49 27.5 14.99 27.5C16.54 27.5 18.0925 25.6837 19.0337 22.9262C19.1087 22.7087 19.1775 22.4825 19.245 22.25C19.5408 22.3233 19.8387 22.3883 20.1387 22.445C22.8925 22.9663 25.0788 22.5575 25.8275 21.2575C26.6013 19.9138 25.8025 17.6613 23.885 15.47ZM5.0875 9.315C5.57 8.4775 7.51625 8.15 10.07 8.675C10.2333 8.70833 10.3996 8.74583 10.5687 8.7875C10.3191 9.89045 10.1429 11.0087 10.0412 12.135C9.12032 12.7826 8.24223 13.4891 7.4125 14.25C7.23 14.0608 7.05208 13.8671 6.87875 13.6688C5.27 11.8263 4.635 10.1013 5.0875 9.315ZM9.94625 16.475C9.30875 15.9913 8.715 15.4963 8.17625 14.9988C8.71375 14.5038 9.3075 14.0113 9.945 13.5288C9.92167 14.0196 9.91042 14.5108 9.91125 15.0025C9.91125 15.4942 9.92292 15.985 9.94625 16.475ZM9.94625 21.4C8.86277 21.6413 7.74414 21.6811 6.64625 21.5175C6.34527 21.494 6.05231 21.4089 5.78549 21.2677C5.51867 21.1264 5.28367 20.9319 5.095 20.6963C4.63875 19.9088 5.23375 18.2238 6.8 16.4088C6.99667 16.1813 7.2 15.9596 7.41 15.7438C8.24011 16.5094 9.11995 17.2193 10.0437 17.8688C10.1464 19.0092 10.3243 20.1417 10.5763 21.2588C10.3679 21.3113 10.1575 21.3588 9.945 21.4013L9.94625 21.4ZM18.8212 11.3513C18.4021 11.0871 17.9779 10.8317 17.5487 10.585C17.1254 10.3417 16.6975 10.1071 16.265 9.88125C16.976 9.58094 17.7015 9.31603 18.4388 9.0875C18.6042 9.83517 18.7319 10.5907 18.8212 11.3513ZM12.1 7.29375C12.895 4.98125 14.0725 3.56875 14.98 3.56875C15.9462 3.5675 17.2012 5.09125 18.0225 7.565C18.0758 7.72667 18.1258 7.88917 18.1725 8.0525C17.0944 8.38661 16.0396 8.79166 15.015 9.265C13.9938 8.78587 12.9414 8.37619 11.865 8.03875C11.9375 7.78875 12.0158 7.54042 12.1 7.29375ZM11.6 9.07375C12.3339 9.30473 13.0556 9.57257 13.7625 9.87625C12.8858 10.3279 12.0325 10.82 11.2025 11.3525C11.3025 10.555 11.4362 9.79125 11.6 9.07375ZM11.2037 18.6488C11.6179 18.9146 12.0383 19.17 12.465 19.415C12.9 19.665 13.3404 19.905 13.7862 20.135C13.0743 20.4492 12.3467 20.7266 11.6062 20.9663C11.4342 20.2012 11.2999 19.4282 11.2037 18.65V18.6488ZM18.0237 22.5813C17.6912 23.64 17.1666 24.6286 16.4762 25.4975C16.3058 25.7466 16.0861 25.9581 15.8306 26.1189C15.5752 26.2797 15.2895 26.3865 14.9912 26.4325C14.08 26.4325 12.9187 25.0762 12.1287 22.8125C12.0354 22.545 11.9496 22.275 11.8712 22.0025C12.9527 21.6536 14.0093 21.2318 15.0338 20.74C16.0671 21.2172 17.1306 21.626 18.2175 21.9638C18.1575 22.1713 18.0929 22.3771 18.0237 22.5813ZM18.4762 20.9263C17.7294 20.693 16.9944 20.4235 16.2737 20.1188C16.6979 19.8963 17.125 19.6608 17.555 19.4125C17.9967 19.1575 18.4267 18.8963 18.845 18.6288C18.7615 19.4004 18.6384 20.1672 18.4762 20.9263ZM19.035 14.9975C19.035 15.7567 19.0112 16.515 18.9637 17.2725C18.3475 17.69 17.6975 18.0975 17.0212 18.4875C16.3462 18.8763 15.68 19.2338 15.025 19.5575C14.3358 19.2275 13.66 18.8717 12.9975 18.49C12.3392 18.1108 11.6958 17.7071 11.0675 17.2788C11.0092 16.5204 10.98 15.7613 10.98 15.0013C10.98 14.2421 11.0083 13.4833 11.065 12.725C12.3216 11.8671 13.6412 11.1053 15.0125 10.4463C15.6925 10.7771 16.3604 11.1317 17.0162 11.51C17.6746 11.8883 18.3204 12.2879 18.9537 12.7088C19.0079 13.4704 19.035 14.2333 19.035 14.9975ZM20.23 8.63125C22.6325 8.165 24.4425 8.47875 24.8962 9.265C25.38 10.1025 24.6875 11.95 22.9538 13.8975C22.8579 14.005 22.7587 14.1129 22.6562 14.2213C21.8118 13.4579 20.9164 12.7529 19.9762 12.1113C19.8816 10.9974 19.7124 9.89122 19.47 8.8C19.7283 8.73667 19.9817 8.68042 20.23 8.63125ZM20.0675 13.4875C20.7019 13.9506 21.3119 14.4462 21.895 14.9725C21.3146 15.5072 20.7067 16.0112 20.0737 16.4825C20.0929 15.9875 20.1025 15.4925 20.1025 14.9975C20.1025 14.4942 20.0908 13.9908 20.0675 13.4875ZM24.9037 20.7238C24.4487 21.5125 22.6938 21.8413 20.3375 21.3963C20.0675 21.3454 19.7908 21.2846 19.5075 21.2138C19.7441 20.1084 19.9057 18.9884 19.9912 17.8613C20.9298 17.2088 21.8223 16.4925 22.6625 15.7175C22.81 15.87 22.95 16.0217 23.0825 16.1725C23.8338 16.9895 24.4283 17.9378 24.8362 18.97C24.9668 19.2422 25.0402 19.5382 25.0518 19.8399C25.0634 20.1415 25.013 20.4423 24.9037 20.7238ZM13.88 13.0475C13.4976 13.2683 13.1893 13.5975 12.9941 13.9935C12.7988 14.3895 12.7253 14.8345 12.783 15.2722C12.8406 15.71 13.0267 16.1208 13.3178 16.4528C13.6089 16.7847 13.9919 17.0229 14.4184 17.1372C14.8448 17.2515 15.2956 17.2368 15.7137 17.0949C16.1318 16.9531 16.4985 16.6904 16.7673 16.3402C17.0362 15.9899 17.1951 15.5678 17.2241 15.1273C17.253 14.6867 17.1507 14.2474 16.93 13.865C16.7834 13.611 16.5883 13.3884 16.3557 13.2099C16.1231 13.0313 15.8576 12.9004 15.5743 12.8245C15.2911 12.7485 14.9957 12.7292 14.705 12.7674C14.4143 12.8057 14.1339 12.9009 13.88 13.0475Z" fill="#100D86"/>
</svg>
