<svg width="26" height="26" viewBox="0 0 26 26" fill="none" xmlns="http://www.w3.org/2000/svg">
<g clip-path="url(#clip0_203_28)">
<path d="M18.0153 18.0863C18.9747 17.9821 19.7026 17.1143 19.6695 16.0728C19.6365 15.0314 18.8093 14.1982 17.8167 14.1982H17.7506C16.7248 14.233 15.9308 15.1355 15.9639 16.2116C15.997 16.7324 16.1955 17.1837 16.4932 17.4961C15.3683 19.822 13.6479 21.523 11.0672 22.9463C9.31358 23.9183 7.49389 24.2655 5.67419 24.0225C4.18529 23.8142 3.02727 23.12 2.29927 21.9743C1.24058 20.2733 1.14136 18.4334 2.0347 16.5935C2.66337 15.2744 3.65584 14.3023 4.28451 13.8163C4.15218 13.3651 3.95362 12.6014 3.8544 12.046C-0.94311 15.691 -0.446775 20.6205 1.00902 22.9463C2.10082 24.6821 4.31762 25.7582 6.76599 25.7582C7.42767 25.7582 8.08935 25.6887 8.75113 25.5153C12.9862 24.6474 16.1956 22.009 18.0153 18.0863ZM23.8384 13.7817C21.3239 10.6921 17.6182 8.9911 13.3832 8.9911H12.8538C12.5561 8.36625 11.9274 7.94961 11.2326 7.94961H11.1664C10.1408 7.98434 9.3468 8.88689 9.3798 9.96312C9.41291 11.0045 10.24 11.8377 11.2326 11.8377H11.2987C12.0266 11.8029 12.6553 11.3169 12.92 10.6573H13.5155C16.0301 10.6573 18.4123 11.421 20.563 12.9138C22.2172 14.0594 23.4083 15.5522 24.07 17.3572C24.6325 18.8153 24.5994 20.2386 24.0038 21.4536C23.0774 23.2934 21.5224 24.3002 19.4711 24.3002C18.1476 24.3002 16.8904 23.8836 16.2286 23.5711C15.8647 23.9183 15.2029 24.4737 14.7397 24.8209C16.1625 25.5152 17.6182 25.8971 19.0078 25.8971C22.1841 25.8971 24.5332 24.0571 25.4266 22.2173C26.386 20.2038 26.3198 16.7324 23.8384 13.7817ZM7.03066 18.6763C7.06377 19.7178 7.8909 20.5509 8.88347 20.5509H8.94969C9.97537 20.5162 10.7694 19.6136 10.7363 18.5375C10.7033 17.496 9.87604 16.6629 8.88347 16.6629H8.81735C8.75113 16.6629 8.6518 16.6629 8.58579 16.6975C7.22922 14.337 6.66676 11.7682 6.86532 8.99099C6.99755 6.90812 7.65933 5.10293 8.81735 3.61016C9.77681 2.32572 11.6296 1.70087 12.887 1.66624C16.394 1.59676 17.8828 6.17905 17.9821 8.01898C18.4123 8.12308 19.1402 8.36614 19.6365 8.53972C19.2394 2.91605 15.9308 0 12.7546 0C9.77681 0 7.03066 2.25646 5.93876 5.58904C4.41685 10.0325 5.40942 14.3023 7.26222 17.6697C7.09688 17.9126 6.99755 18.2944 7.03066 18.6763Z" fill="#100D86"/>
</g>
<defs>
<clipPath id="clip0_203_28">
<rect width="26" height="26" fill="white"/>
</clipPath>
</defs>
</svg>
