<svg width="50" height="50" viewBox="0 0 50 50" fill="none" xmlns="http://www.w3.org/2000/svg">
<path d="M30.9729 25.4833C30.2214 24.9995 29.4049 24.6249 28.5479 24.3708C27.9541 24.1935 27.356 24.0309 26.7542 23.8833C26.0399 23.6876 25.3202 23.5126 24.5958 23.3583C23.5183 23.131 22.4607 22.8175 21.4333 22.4208C20.7654 22.1579 20.1774 21.7256 19.7271 21.1667C19.3381 20.6435 19.1437 20.0011 19.1771 19.35C19.1771 18.675 19.3979 18.0167 19.8104 17.4833C20.3125 16.8646 20.9771 16.4 21.7312 16.1437C22.8023 15.7694 23.9326 15.5936 25.0667 15.625C25.9521 15.6125 26.8354 15.7333 27.6854 15.9792C28.3042 16.1542 28.8875 16.4417 29.4021 16.8271C29.7833 17.1062 30.1042 17.4583 30.3458 17.8625C30.4768 18.1059 30.6991 18.2873 30.9638 18.3668C31.2285 18.4463 31.5139 18.4174 31.7573 18.2865C32.0007 18.1555 32.1821 17.9332 32.2616 17.6685C32.3411 17.4038 32.3122 17.1184 32.1812 16.875C31.8064 16.2225 31.3032 15.6527 30.7021 15.2C29.9841 14.6523 29.1712 14.242 28.3042 13.9896C27.2533 13.6801 26.1621 13.5291 25.0667 13.5417C23.676 13.509 22.2912 13.7322 20.9812 14.2C19.8649 14.6 18.8823 15.3034 18.1437 16.2312C17.4625 17.1271 17.0937 18.2229 17.0937 19.35C17.0631 20.4643 17.4121 21.5559 18.0833 22.4458C18.7583 23.2917 19.6396 23.9479 20.6458 24.35C21.5021 24.6792 22.3812 24.9542 23.275 25.1687C23.2917 25.175 23.3062 25.1896 23.325 25.1958C23.7062 25.3083 24.3208 25.4625 25.2 25.6542C25.5604 25.7312 25.8979 25.8167 26.2375 25.9021C26.3 25.9187 26.3833 25.9375 26.4417 25.9562C26.4667 25.9646 26.4917 25.9625 26.5167 25.9667C27.0167 26.0958 27.4979 26.2312 27.9417 26.3646C28.6042 26.5604 29.2375 26.8479 29.8187 27.2187C30.2562 27.5021 30.625 27.8854 30.8917 28.3354C31.1625 28.8562 31.2917 29.4396 31.2729 30.0292C31.3104 30.8062 31.0833 31.575 30.6271 32.2042C30.0914 32.9152 29.3624 33.4569 28.5271 33.7646C27.4104 34.2021 26.2167 34.4104 25.0167 34.375C23.6263 34.4235 22.2446 34.1378 20.9875 33.5417C20.3214 33.1857 19.7495 32.6766 19.3187 32.0562C18.9665 31.5839 18.7595 31.0193 18.7229 30.4312C18.7229 30.155 18.6132 29.89 18.4178 29.6947C18.2225 29.4993 17.9575 29.3896 17.6813 29.3896C17.405 29.3896 17.14 29.4993 16.9447 29.6947C16.7493 29.89 16.6396 30.155 16.6396 30.4312C16.675 31.4417 17.0104 32.4187 17.6042 33.2375C18.2292 34.1396 19.0604 34.8792 20.0292 35.3896C21.5811 36.1428 23.2923 36.5095 25.0167 36.4583C26.4915 36.4961 27.9587 36.2339 29.3292 35.6875C30.5266 35.2335 31.567 34.4426 32.325 33.4104C33.0416 32.4183 33.4047 31.2145 33.3562 29.9917C33.3885 29.0973 33.1854 28.2102 32.7671 27.419C32.3488 26.6278 31.7301 25.9603 30.9729 25.4833ZM45.5021 28.6833C46.0986 25.3761 45.8855 21.9736 44.8813 18.7666C43.877 15.5596 42.1113 12.6434 39.735 10.2671C37.3587 7.89083 34.4424 6.12511 31.2354 5.12082C28.0284 4.11653 24.626 3.90353 21.3187 4.5C18.9661 3.29746 16.2928 2.87135 13.6829 3.28285C11.0729 3.69436 8.66046 4.92231 6.79191 6.79039C4.92336 8.65848 3.69481 11.0706 3.28266 13.6805C2.87051 16.2903 3.29596 18.9637 4.49792 21.3167C3.90084 24.6242 4.11349 28.0271 5.1177 31.2345C6.12192 34.442 7.88782 37.3585 10.2645 39.735C12.6412 42.1115 15.5579 43.8771 18.7654 44.8811C21.973 45.885 25.3759 46.0974 28.6833 45.5C31.0359 46.7033 33.7094 47.1299 36.3196 46.7186C38.9299 46.3073 41.3426 45.0793 43.2112 43.2109C45.0798 41.3425 46.3082 38.93 46.7198 36.3198C47.1314 33.7096 46.7051 31.0361 45.5021 28.6833ZM39.4021 43.5C37.8632 44.3475 36.1349 44.7919 34.3781 44.7919C32.6213 44.7919 30.893 44.3475 29.3542 43.5C29.1389 43.3819 28.889 43.3428 28.6479 43.3896C25.6252 43.9917 22.5005 43.8389 19.551 42.9447C16.6014 42.0505 13.9179 40.4425 11.7384 38.2632C9.55889 36.0839 7.95062 33.4006 7.05613 30.4511C6.16164 27.5016 6.00855 24.377 6.61042 21.3542C6.65774 21.1138 6.61864 20.8644 6.5 20.65C5.41315 18.6732 4.99743 16.3969 5.31535 14.1635C5.63326 11.9301 6.66762 9.8603 8.26291 8.26525C9.85819 6.6702 11.9282 5.63614 14.1616 5.31856C16.3951 5.00097 18.6712 5.41703 20.6479 6.50416C20.8621 6.62564 21.1134 6.66419 21.3542 6.6125C24.3765 6.01139 27.5004 6.16488 30.4492 7.05936C33.3981 7.95385 36.0808 9.56172 38.2599 11.7406C40.439 13.9194 42.0471 16.602 42.9419 19.5508C43.8366 22.4995 43.9904 25.6235 43.3896 28.6458C43.3419 28.8869 43.381 29.1371 43.5 29.3521C44.8322 31.7714 45.149 34.6208 44.3805 37.2736C43.612 39.9264 41.8212 42.1674 39.4021 43.5Z" fill="#100D86"/>
</svg>
