<svg width="50" height="50" viewBox="0 0 50 50" fill="none" xmlns="http://www.w3.org/2000/svg">
<path d="M44.6485 6.79687C44.3261 6.5184 43.9339 6.33307 43.514 6.26081C43.0942 6.18854 42.6626 6.23207 42.2656 6.38671L6.23048 20.5469C5.76218 20.7332 5.36641 21.0655 5.1019 21.4945C4.83738 21.9235 4.71821 22.4264 4.76206 22.9285C4.80592 23.4306 5.01045 23.9052 5.34533 24.2819C5.68021 24.6585 6.1276 24.9172 6.62111 25.0195L16.4063 26.9922V39.0625C16.4003 39.5275 16.5352 39.9834 16.7931 40.3703C17.0511 40.7573 17.4201 41.0571 17.8516 41.2305C18.1437 41.3467 18.4552 41.4063 18.7695 41.4062C19.0746 41.4066 19.3768 41.3463 19.6584 41.229C19.94 41.1116 20.1956 40.9395 20.4102 40.7226L25.9961 35.1367L34.2383 42.3828C34.6607 42.7652 35.2116 42.9744 35.7813 42.9687C36.0268 42.9681 36.2707 42.9285 36.5039 42.8516C36.8879 42.7256 37.2332 42.5032 37.5068 42.2057C37.7803 41.9082 37.973 41.5455 38.0664 41.1523L45.4102 9.08202C45.5063 8.66793 45.486 8.23531 45.3516 7.83201C45.2172 7.42872 44.9738 7.07046 44.6485 6.79687ZM6.30861 22.793C6.28538 22.6237 6.32127 22.4516 6.41023 22.3057C6.49918 22.1598 6.63576 22.049 6.79689 21.9922L39.8438 9.02343L17.0117 25.5078L6.93361 23.4961C6.76575 23.4658 6.61291 23.38 6.49959 23.2525C6.38627 23.125 6.31902 22.9632 6.30861 22.793ZM19.2969 39.6094C19.1908 39.7197 19.0539 39.7954 18.9041 39.8268C18.7543 39.8581 18.5985 39.8436 18.457 39.7851C18.313 39.7269 18.1897 39.627 18.1027 39.4983C18.0157 39.3696 17.9691 39.2178 17.9688 39.0625V28.0664L24.8242 34.1016L19.2969 39.6094ZM43.8867 8.74999L36.543 40.8008C36.5137 40.9337 36.4493 41.0563 36.3566 41.1559C36.2639 41.2555 36.1461 41.3285 36.0156 41.3672C35.8896 41.4125 35.7535 41.4218 35.6224 41.3942C35.4913 41.3667 35.3705 41.3032 35.2735 41.2109L18.4375 26.4062L43.7695 8.10546C43.8334 8.19856 43.8769 8.30412 43.8971 8.4152C43.9173 8.52628 43.9137 8.64037 43.8867 8.74999Z" fill="#FF5151"/>
</svg>
